<svg xmlns="http://www.w3.org/2000/svg" xmlns:xlink="http://www.w3.org/1999/xlink" width="1571" height="1180" viewBox="0 0 1571 1180">
  <defs>
    <linearGradient id="linear-gradient" x1="0.5" x2="0.5" y2="1" gradientUnits="objectBoundingBox">
      <stop offset="0" stop-color="#ff9e00"/>
      <stop offset="1" stop-color="#ff6d00"/>
    </linearGradient>
    <clipPath id="clip-Artboard_1">
      <rect width="1571" height="1180"/>
    </clipPath>
  </defs>
  <g id="Artboard_1" data-name="Artboard – 1" clip-path="url(#clip-Artboard_1)">
    <path id="Intersection_3" data-name="Intersection 3" d="M-2682.6,2679.9a70.581,70.581,0,0,1-12.122-10.916,64.589,64.589,0,0,1-9.133-13.169c-9.789-18.993-5.6-32.919,3.232-44.523,38.848,7.44,59.463,45.184,47.925,83.633A120.422,120.422,0,0,1-2682.6,2679.9Zm-287.783-68.609c8.839,11.6,13.016,25.53,3.238,44.523a65.252,65.252,0,0,1-9.133,13.169A71.037,71.037,0,0,1-2988.4,2679.9a120.427,120.427,0,0,1-29.9,15.024C-3029.844,2656.472-3009.223,2618.729-2970.381,2611.288Zm370.094,66.149a105.942,105.942,0,0,1-15.007-6.773,67.732,67.732,0,0,1-23.669-21.071c-11.865-17.506-9.467-31.542-2.243-43.8,42.007,4.463,62.984,39.964,56.909,76.171A100.359,100.359,0,0,1-2600.287,2677.438Zm-429.513-71.645c7.229,12.258,9.627,26.294-2.243,43.8a67.646,67.646,0,0,1-23.669,21.071,105.054,105.054,0,0,1-15,6.773,100.19,100.19,0,0,1-15.99,4.525C-3092.772,2645.757-3071.8,2610.256-3029.8,2605.792Zm194.3,8.439c-37.95,10.694-66.034,29.193-80.251,66.315a128.775,128.775,0,0,1-8.789-15.8c14.356-28.329,35.314-45.639,61.544-56.754-94.649-17.236-234.164-7.658-373.3-92.906-283.1-174.311-329.3-547.652-152.991-781.238l3.508,2.56c-173.367,233.126-123.8,600.581,155.107,769.524,152.917,92.155,299.468,68.423,395.171,92.944,95.7-24.521,242.257-.789,395.174-92.944,278.91-168.943,328.473-536.4,155.1-769.524l3.519-2.56c176.3,233.586,130.111,606.927-153,781.238-139.14,85.248-278.656,75.669-373.3,92.906,26.23,11.116,47.189,28.425,61.546,56.754a129.588,129.588,0,0,1-8.789,15.8C-2769.466,2643.425-2797.55,2624.925-2835.5,2614.231Zm286.177,39.976a79.168,79.168,0,0,1-13.947-7.407,61.819,61.819,0,0,1-11.737-10.372c-13.758-15.8-13.142-29.726-7.584-42.429h.1c16.806,0,30.437,2.531,45.694,17.684,14.741,14.535,19.772,32.247,19.083,50.019A102.88,102.88,0,0,1-2549.323,2654.208Zm-584.88-42.524c15.257-15.152,28.888-17.684,45.694-17.684h.1c5.558,12.7,6.174,26.633-7.59,42.429a61.448,61.448,0,0,1-11.737,10.372,79,79,0,0,1-13.947,7.407,102.8,102.8,0,0,1-31.6,7.5C-3153.969,2643.93-3148.938,2626.218-3134.2,2611.684ZM-2525.7,2576a63.43,63.43,0,0,1,11.015-1.006,52.54,52.54,0,0,1,12.114,1.388c25.568,6.042,45.866,28.217,48.554,58.11q-1.223.026-2.446.026C-2497.37,2634.518-2536.319,2612.054-2525.7,2576Zm-688.836,58.519c-.813,0-1.633-.009-2.446-.026,2.682-29.893,22.986-52.069,48.554-58.11a52.513,52.513,0,0,1,12.114-1.388A63.417,63.417,0,0,1-3145.3,2576c10.615,36.053-28.32,58.519-69.225,58.519Zm743.352-82.627a59.8,59.8,0,0,1,16.558-2.366c28.915,0,54.2,21.587,60.768,51.2a115.169,115.169,0,0,1-14.74.953C-2444.4,2601.682-2476.411,2584.577-2471.182,2551.891Zm-791.223,49.79a115.369,115.369,0,0,1-14.74-.953c6.574-29.616,31.853-51.2,60.769-51.2a59.8,59.8,0,0,1,16.557,2.366c5.224,32.685-26.775,49.789-62.578,49.79Zm542.485-31.641c-10.311-17.417-.983-34.207.661-36.294,3.32-17.084,21.192-37.077,34.668-48.36,8.222,35.162.139,75.049-34.718,86.21A12.478,12.478,0,0,1-2719.92,2570.041Zm-266.494-84.654c13.48,11.282,31.353,31.275,34.672,48.36,1.644,2.088,10.966,18.878.661,36.294a11.7,11.7,0,0,1-.616,1.556C-2986.543,2560.435-2994.625,2520.548-2986.414,2485.386Zm349.694-3.98c11.227,33.518,6.485,74.471-26.573,87.453C-2680.66,2543.613-2658.9,2503.359-2636.72,2481.406Zm-397.564,0c22.18,21.953,43.946,62.206,26.578,87.453C-3040.764,2555.877-3045.506,2514.924-3034.284,2481.406Zm670.01,82.7c-30.323,0-56.267-13.507-55.315-41.935A62.792,62.792,0,0,1-2397,2517.9c25.845,0,49.376,16.579,59.115,42.969a112.057,112.057,0,0,1-26.376,3.237Zm-942.447,0a112.167,112.167,0,0,1-26.389-3.237c9.732-26.389,33.263-42.969,59.108-42.969a62.813,62.813,0,0,1,22.592,4.27c.952,28.429-24.984,41.935-55.308,41.935Zm717.333-91.922c14.1,31.819,12.748,72.6-18.327,87.875C-2626.833,2536.912-2609.237,2495.269-2589.388,2472.183Zm-492.225,0c19.849,23.086,37.445,64.729,18.333,87.875C-3094.355,2544.783-3095.71,2504-3081.613,2472.183Zm538.431-14.635c17.216,30.532,18.489,70.557-10.228,87.758C-2572.692,2525.69-2563.209,2486.854-2543.181,2457.548Zm-584.637,0c20.021,29.305,29.516,68.141,10.227,87.758C-3146.312,2528.105-3145.035,2488.08-3127.818,2457.548Zm629.2-19.782c18.872,27.367,24.647,67.492-2.366,87C-2523.155,2505.786-2513.339,2463.917-2498.62,2437.766Zm-673.765,0c14.72,26.151,24.541,68.02,2.371,87C-3197.031,2505.258-3191.251,2465.133-3172.385,2437.766Zm800.91,49.442a58.591,58.591,0,0,1,28.177-7.285c23.4.005,45.4,14.163,56.432,35.329a99.964,99.964,0,0,1-36.077,7.077C-2348.141,2522.327-2369.369,2511.111-2371.475,2487.208Zm-976.579,35.121a100.048,100.048,0,0,1-36.08-7.077c11.032-21.166,33.035-35.323,56.432-35.329a58.591,58.591,0,0,1,28.177,7.285c-2.1,23.9-23.326,35.121-48.526,35.121Zm891.864-109.216c23.23,27.883,27.906,67.332,5.153,85.587C-2474.4,2481.767-2468.538,2439.448-2456.191,2413.114Zm-758.625,0c12.354,26.334,18.217,68.654-5.152,85.587C-3242.721,2480.446-3238.034,2441-3214.815,2413.114Zm929.633,63.1c-20.718,0-37.924-8.873-42.168-28.8,11.415-7.35,23.208-10.588,34.484-10.588,20.9,0,40.032,11.127,51.729,27.839-14.338,7.472-29.994,11.548-44.039,11.548Zm-1144.675-11.548c11.693-16.712,30.826-27.839,51.724-27.839,11.277,0,23.064,3.238,34.48,10.588-4.243,19.928-21.445,28.8-42.163,28.8C-3399.861,2476.215-3415.522,2472.139-3429.857,2464.666Zm1013.421-80.835c22.881,22.937,34.3,59.543,12.215,83.45C-2428.28,2453.112-2426.619,2411.137-2416.437,2383.831Zm-838.127,0c10.183,27.306,11.844,69.281-12.215,83.45C-3288.854,2443.374-3277.444,2406.768-3254.563,2383.831Zm874.55-33.729c25.606,21.409,38.271,56.588,19.01,80.918C-2386.582,2418.666-2386.582,2378.179-2380.014,2350.1Zm-910.978,0c6.578,28.078,6.573,68.564-19,80.918C-3329.258,2406.69-3316.588,2371.511-3290.991,2350.1Zm1039.715,76.458c-16.51,0-30.548-6.85-36.51-23.395a56.6,56.6,0,0,1,38.66-14.7,65.541,65.541,0,0,1,47.955,21.231c-15.6,10.368-34.022,16.865-50.1,16.865Zm-1168.448,0c-16.079,0-34.51-6.5-50.109-16.865a65.57,65.57,0,0,1,47.961-21.231,56.579,56.579,0,0,1,38.654,14.7c-5.957,16.545-19.991,23.395-36.5,23.395Zm1072.368-114.1c25.6,17.9,42.8,52.03,25.4,77.875C-2347.595,2380.439-2351.853,2340.669-2347.356,2312.464Zm-976.288,0c4.5,28.205.239,67.976-25.4,77.875C-3366.446,2364.494-3349.24,2330.364-3323.644,2312.464Zm1103.912,60.984c-15.712,0-27.794-7.251-33.492-18.482,11.437-13.114,27.427-19.228,43.618-19.222a66.55,66.55,0,0,1,42.224,15.2c-19.158,15.937-37.4,22.5-52.344,22.5Zm-1231.539,0c-14.949,0-33.188-6.563-52.348-22.5a66.537,66.537,0,0,1,42.224-15.2c16.19-.006,32.18,6.108,43.619,19.222-5.7,11.231-17.782,18.481-33.492,18.482Zm1132.447-102.11c29.51,17.011,45.184,49.837,31.4,74.4C-2313.243,2338-2321.667,2298.178-2318.823,2271.339Zm-1033.358,0c2.848,26.839-5.57,66.659-31.4,74.4C-3397.365,2321.176-3381.681,2288.35-3352.181,2271.339Zm1157.315,46.255c-12.348,0-22.85-4.92-29.1-14.152,11.155-15.735,29.643-24.463,48.965-24.463a65.145,65.145,0,0,1,34.591,10.006c-17.574,19.572-37.711,28.608-54.45,28.609Zm-1335.724-28.609A65.171,65.171,0,0,1-3496,2278.979c19.322,0,37.81,8.728,48.965,24.463-6.254,9.234-16.753,14.152-29.1,14.152C-3492.875,2317.593-3513.016,2308.556-3530.591,2288.984Zm1235.614-61.908c27.806,12.926,48.848,42.087,37.005,70.513C-2284.6,2292.125-2293.989,2254.56-2294.977,2227.076Zm-1081.046,0c-.988,27.484-10.371,65.05-37,70.513C-3424.865,2269.163-3403.823,2240-3376.023,2227.076Zm1199.49,32.825a30.681,30.681,0,0,1-23.834-10.738c12.048-20.677,32.552-30.288,53.007-30.288a65.758,65.758,0,0,1,27.028,5.813,125.5,125.5,0,0,1-8.728,10.889c-13.3,13.735-31.3,24.324-47.471,24.324Zm-1365.407-24.324a125.386,125.386,0,0,1-8.734-10.889,65.785,65.785,0,0,1,27.033-5.813c20.449,0,40.958,9.611,53.007,30.288a30.675,30.675,0,0,1-23.835,10.738C-3510.642,2259.9-3528.649,2249.312-3541.94,2235.577Zm1265.8-55.367c34.39,12.52,49.9,42.542,42.191,66.288C-2259.8,2243.315-2273.939,2206.677-2276.138,2180.21Zm-1118.729,0c-2.193,26.468-16.334,63.106-42.186,66.288C-3444.766,2222.751-3429.258,2192.73-3394.868,2180.21Zm1232.156,20.1a29.515,29.515,0,0,1-19.988-7.583c9.672-23.68,33.169-36.516,56.943-36.516a64.649,64.649,0,0,1,18.406,2.654,122.268,122.268,0,0,1-7.351,11.6c-11.632,16.052-30.531,29.847-48.008,29.847ZM-3556.3,2170.46a126.743,126.743,0,0,1-7.352-11.6,64.713,64.713,0,0,1,18.412-2.654c23.774,0,47.277,12.836,56.943,36.516a29.516,29.516,0,0,1-19.991,7.583C-3525.769,2200.307-3544.668,2186.512-3556.3,2170.46Zm1293.846-39.176c30.976,8.428,54.006,35.861,46.915,61.8C-2241.225,2191.986-2258.32,2156.924-2262.457,2131.284Zm-1146.085,0c-4.136,25.64-21.232,60.7-46.916,61.8C-3462.549,2167.145-3439.519,2139.712-3408.542,2131.284Zm1253.643,8.164a29.674,29.674,0,0,1-16.347-4.677c5.647-23.1,30.276-43.2,59.758-43.2a65.277,65.277,0,0,1,9.934.761c-14.445,33.725-35.956,47.111-53.343,47.112Zm-1361.2,0c-17.387,0-38.9-13.387-53.347-47.112a65.273,65.273,0,0,1,9.934-.761c29.482,0,54.106,20.1,59.758,43.2a29.652,29.652,0,0,1-16.34,4.677Zm1312.149-1.486c-24.886,0-44.522-32.782-50.22-57.142,28.566,5.28,55.494,28.489,51.164,57.126-.293.01-.584.015-.876.015Zm-1263.1,0q-.47,0-.944-.015c-4.331-28.637,22.6-51.846,51.164-57.126-5.7,24.359-25.334,57.139-50.219,57.142Zm1267.412-56.058c-23.769,0-44.7-30.116-51.814-52.53,28.594,2.943,58.021,25.3,54.972,52.352a27.474,27.474,0,0,1-3.134.178Zm-1271.723,0a27.9,27.9,0,0,1-3.158-.178c-3.047-27.05,26.378-49.409,54.973-52.352-7.106,22.415-28.042,52.529-51.813,52.53Zm1317.416-3.22a28.031,28.031,0,0,1-12.175-2.688c3.209-26.222,30.12-50.08,62.156-50.08.339,0,.683,0,1.021.005-10.893,36.964-32.939,52.762-51,52.763Zm-1363.109,0c-18.061,0-40.111-15.8-51.009-52.763.344-.005.682-.005,1.021-.005,32.042,0,58.953,23.858,62.162,50.08a28,28,0,0,1-12.168,2.688Zm1262.67-100.923c35.689.771,59.031,26.129,58.292,47.293a28.014,28.014,0,0,1-5.216.486C-2223.862,2025.538-2245.615,1999.057-2254.385,1977.76ZM-3469.7,2025.539a28.11,28.11,0,0,1-5.217-.486c-.734-21.164,22.607-46.522,58.3-47.293-8.774,21.3-30.524,47.777-53.083,47.778Zm1302.559-8.447c.2-27.778,26.067-53.251,55.783-56.9-5.546,32.443-24.9,58.348-46.833,58.348A28.757,28.757,0,0,1-2167.137,2017.092Zm-1392.51-56.9c29.715,3.648,55.583,29.121,55.783,56.9a28.759,28.759,0,0,1-8.949,1.449C-3534.743,2018.538-3554.1,1992.634-3559.646,1960.193Zm1296.629-33.6c1.472-.088,2.92-.128,4.353-.128,32.609,0,55.866,21.954,56.872,42.2a27.772,27.772,0,0,1-7.274.952C-2230.415,1969.613-2252.875,1946.433-2263.018,1926.591Zm-1198.915,43.022a27.76,27.76,0,0,1-7.273-.952c1.005-20.243,24.268-42.2,56.865-42.2,1.438,0,2.887.039,4.359.128-10.142,19.84-32.6,43.019-53.946,43.022Zm1292.254-10.527a24.912,24.912,0,0,1-4.61-.426c-3.032-26.051,18.028-54.822,47.55-62.735-1.888,42.22-23.974,63.159-42.937,63.16Zm-1374.582-63.16c29.521,7.912,50.581,36.684,47.549,62.735a24.9,24.9,0,0,1-4.609.426C-3520.282,1959.085-3542.378,1938.148-3544.261,1895.926Zm1266.912-19.476a70.892,70.892,0,0,1,9.811-.689c29.077,0,51.347,18.411,53.962,37.433a28.058,28.058,0,0,1-9.412,1.576C-2243.589,1914.769-2266.351,1894.3-2277.348,1876.449Zm-1170.668,38.319a28.059,28.059,0,0,1-9.413-1.576c2.621-19.022,24.885-37.433,53.968-37.433a70.85,70.85,0,0,1,9.8.689c-11,17.847-33.751,38.318-54.355,38.319Zm1261.8-13.351c-.493,0-.991-.014-1.493-.039-5.779-26.611,12.2-56.145,38.787-67.482,2.564,33.84-12.225,67.519-37.292,67.521ZM-3522.084,1833.9c26.589,11.337,44.567,40.87,38.792,67.482-.5.026-1,.039-1.492.039C-3509.852,1901.415-3524.644,1867.736-3522.084,1833.9Zm1279.162,27.749c-19.455,0-42.057-16.877-54.331-33.712a68.434,68.434,0,0,1,14.747-1.621c26.157,0,47.243,15.463,51.18,33a28.468,28.468,0,0,1-11.588,2.336Zm-1196.746-2.336c3.931-17.534,25.023-33,51.175-33a68.438,68.438,0,0,1,14.747,1.621c-12.275,16.836-34.879,33.712-54.329,33.712A28.482,28.482,0,0,1-3439.668,1859.309Zm1262.132-84.371c8.416,42.641-10.017,69.358-29.611,71.057C-2215.541,1817.051-2200.123,1788.614-2177.536,1774.938Zm-1315.926,0c22.585,13.675,38.01,42.113,29.61,71.057C-3483.441,1844.3-3501.874,1817.579-3493.462,1774.938Zm1170.808,6.691a66.8,66.8,0,0,1,19.384-2.91c23.791.005,43.428,13.175,48.3,28.877a29.559,29.559,0,0,1-14.008,3.282C-2288.124,1810.879-2310.453,1795.933-2322.655,1781.63Zm-1079.364,29.25a29.588,29.588,0,0,1-14.009-3.282c4.875-15.7,24.5-28.871,48.3-28.877a66.747,66.747,0,0,1,19.377,2.91c-12.2,14.3-34.52,29.249-53.663,29.25Zm1189.72-91.4c10.4,32.086,3.918,67.882-20.132,73.422C-2244.331,1765.216-2231.848,1735.506-2212.3,1719.483Zm-1246.4,0c19.544,16.024,32.026,45.734,20.127,73.422C-3462.621,1787.364-3469.1,1751.568-3458.7,1719.483Zm1105.7,18.745a65.4,65.4,0,0,1,23.63-4.369c19.72,0,38.5,8.755,45.45,24.946a30.667,30.667,0,0,1-16.529,4.37C-2318.844,1763.172-2340.515,1750.8-2352.991,1738.227Zm-1017.569,24.946a30.674,30.674,0,0,1-16.529-4.37c6.952-16.19,25.729-24.946,45.45-24.946a65.405,65.405,0,0,1,23.63,4.369c-12.48,12.569-34.146,24.945-52.548,24.946Zm1117.891-94.887c13.781,30.288,12.027,65.877-10.539,74.583C-2277.559,1718.2-2270.063,1687.269-2252.669,1668.286Zm-1165.662,0c17.394,18.982,24.9,49.914,10.531,74.583C-3430.358,1734.163-3432.106,1698.574-3418.331,1668.286Zm1047.04-25.207c37.6,7.423,75.754,38.01,72.927,72.112C-2330.6,1712.665-2359.538,1673.427-2371.291,1643.079Zm-928.422,0c-11.754,30.348-40.687,69.586-72.923,72.112C-3375.467,1681.089-3337.307,1650.5-3299.713,1643.079Z" transform="translate(3621 -1563)" fill="url(#linear-gradient)"/>
    <text id="Winner" transform="translate(414 296)" fill="#fff" font-size="170" font-family="Modern-Regular, 'Modern No\. \32 0'" letter-spacing="0.041em"><tspan x="0" y="0">WINNER</tspan></text>
    <text id="Best_Project_for_youth_empowerment" data-name="Best Project for 
youth
empowerment" transform="translate(786 483)" fill="#fff" font-size="125" font-family="Modern-Regular, 'Modern No\. \32 0'"><tspan x="-430.375" y="0">Best Project For </tspan><tspan x="-159.938" y="140">Youth</tspan><tspan x="-364.75" y="280">Empowerment</tspan></text>
  </g>
</svg>
